# xmcd
#
# Track frame offsets:
#	151
#	16990
#	30153
#	45578
#	62805
#	80052
#	95043
#	106931
#	119335
#	129910
#	142523
#	158332
#	176739
#	194237
#	208374
#	221698
#	237540
#	254522
#	266829
#	281777
#
# Disc length: 3952 seconds
#
# Revision: 1
# Processed by: cddbd v1.5.2PL0 Copyright (c) Steve Scherf et al.
# Submitted via: EZCDAudioConverter 4.0.4.1
#
DISCID=2a0f6e14
DTITLE=Crystal Gayle - The Crystal Gayle Collection
DYEAR=2008
DGENRE=Country
TTITLE0=When I Dream
TTITLE1=Talking in Your Sleep
TTITLE2=Ready for the Times to Get Better
TTITLE3=Nobody Wants to Be Alone
TTITLE4=Miss the Mississippi and You
TTITLE5=For the Good Times
TTITLE6=Always
TTITLE7=Don't It Make My Brown Eyes Blue
TTITLE8=Crying in the Rain
TTITLE9=Crazy
TTITLE10=Tennessee Nights
TTITLE11=Half the Way
TTITLE12=Ain't No Love in the Heart of the City
TTITLE13=Nobody's Angle
TTITLE14=I Just Can't Leave Your Love Alone
TTITLE15=Deeper in the Fire
TTITLE16=A New Way to Say I Love You
TTITLE17=Lean on Me
TTITLE18=The Blue Side
TTITLE19=The Sound of Goodbye
EXTD=
EXTT0=
EXTT1=
EXTT2=
EXTT3=
EXTT4=
EXTT5=
EXTT6=
EXTT7=
EXTT8=
EXTT9=
EXTT10=
EXTT11=
EXTT12=
EXTT13=
EXTT14=
EXTT15=
EXTT16=
EXTT17=
EXTT18=
EXTT19=
PLAYORDER=
